<svg width="24" height="24" viewBox="0 0 24 24" fill="none" xmlns="http://www.w3.org/2000/svg">
<path d="M8.5 3C9.05228 3 9.5 3.44772 9.5 4V4.5H9C8.47405 4.5 7.96917 4.59023 7.5 4.75606V4C7.5 3.44772 7.94772 3 8.5 3Z" fill="black"/>
<path d="M13 4.5V4C13 3.44772 12.5523 3 12 3C11.4477 3 11 3.44772 11 4V4.5H13Z" fill="black"/>
<path d="M15 4.5C15.526 4.5 16.0308 4.59023 16.5 4.75606V4C16.5 3.44772 16.0523 3 15.5 3C14.9477 3 14.5 3.44772 14.5 4V4.5H15Z" fill="black"/>
<path d="M19.5 9V9.5H20C20.5523 9.5 21 9.05228 21 8.5C21 7.94772 20.5523 7.5 20 7.5H19.2439C19.4098 7.96917 19.5 8.47405 19.5 9Z" fill="black"/>
<path d="M19.5 13H20C20.5523 13 21 12.5523 21 12C21 11.4477 20.5523 11 20 11H19.5V13Z" fill="black"/>
<path d="M19.5 15C19.5 15.526 19.4098 16.0308 19.2439 16.5H20C20.5523 16.5 21 16.0523 21 15.5C21 14.9477 20.5523 14.5 20 14.5H19.5V15Z" fill="black"/>
<path d="M15 19.5H14.5V20C14.5 20.5523 14.9477 21 15.5 21C16.0523 21 16.5 20.5523 16.5 20V19.2439C16.0308 19.4098 15.526 19.5 15 19.5Z" fill="black"/>
<path d="M11 19.5V20C11 20.5523 11.4477 21 12 21C12.5523 21 13 20.5523 13 20V19.5H11Z" fill="black"/>
<path d="M9 19.5C8.47405 19.5 7.96917 19.4098 7.5 19.2439V20C7.5 20.5523 7.94772 21 8.5 21C9.05228 21 9.5 20.5523 9.5 20V19.5H9Z" fill="black"/>
<path d="M4.5 15V14.5H4C3.44772 14.5 3 14.9477 3 15.5C3 16.0523 3.44772 16.5 4 16.5H4.75606C4.59023 16.0308 4.5 15.526 4.5 15Z" fill="black"/>
<path d="M4.5 11H4C3.44772 11 3 11.4477 3 12C3 12.5523 3.44772 13 4 13H4.5V11Z" fill="black"/>
<path d="M4.5 9C4.5 8.47405 4.59023 7.96917 4.75606 7.5H4C3.44772 7.5 3 7.94772 3 8.5C3 9.05228 3.44772 9.5 4 9.5H4.5V9Z" fill="black"/>
<path d="M9 6H15C16.6569 6 18 7.34315 18 9V15C18 16.6569 16.6569 18 15 18H9C7.34315 18 6 16.6569 6 15V9C6 7.34315 7.34315 6 9 6Z" fill="black"/>
</svg>
